<svg width="22" height="18" viewBox="0 0 22 18" fill="none" xmlns="http://www.w3.org/2000/svg">
<path d="M1.94343 7.74897C7.58164 5.20899 11.3404 3.53431 13.2198 2.72525C18.5922 0.414959 19.7071 0.0137121 20.4353 0.000118444C20.5954 -0.00253779 20.952 0.0383991 21.1846 0.232929C21.378 0.39699 21.4324 0.618864 21.4596 0.774644C21.4838 0.930268 21.517 1.28495 21.4898 1.56183C21.1997 4.7243 19.9398 12.3986 19.2992 15.9408C19.0303 17.4395 18.4955 17.942 17.9788 17.9911C16.8548 18.098 16.0027 17.2236 14.9149 16.4864C13.2138 15.3323 12.2529 14.6142 10.6002 13.4883C8.69054 12.1871 9.92938 11.4718 11.0171 10.303C11.3012 9.99708 16.2505 5.34242 16.3441 4.92024C16.3562 4.86743 16.3683 4.67055 16.2535 4.5668C16.1417 4.46274 15.9755 4.49837 15.8546 4.52649C15.6824 4.56649 12.966 6.42523 7.69646 10.1024C6.92596 10.6505 6.22798 10.9177 5.5995 10.9036C4.91059 10.8883 3.58111 10.4999 2.59306 10.168C1.38444 9.76083 0.420571 9.54552 0.505174 8.85396C0.547476 8.49396 1.0279 8.12553 1.94343 7.74897Z" fill="white"/>
</svg>
