<svg width="19" height="21" viewBox="0 0 19 21" fill="none" xmlns="http://www.w3.org/2000/svg">
<path d="M0 10.5C0 4.70101 4.64526 0 10.3755 0C12.613 0 14.6876 0.717819 16.3829 1.93799L16.7163 2.18818L16.7973 2.25894C17.1785 2.62534 17.2312 3.23165 16.9027 3.66167C16.5742 4.09153 15.9812 4.19283 15.5348 3.91186L15.4477 3.85034L15.1802 3.64937C13.8243 2.67339 12.1673 2.1 10.3755 2.1C5.7913 2.1 2.07509 5.86081 2.07509 10.5C2.07509 15.1392 5.7913 18.9 10.3755 18.9C12.2868 18.9 14.045 18.2472 15.4477 17.1497L15.5348 17.0881C15.9812 16.8072 16.5742 16.9085 16.9027 17.3383C17.2532 17.7971 17.1696 18.4571 16.7163 18.8118L16.3829 19.062C14.6876 20.2822 12.613 21 10.3755 21C4.64526 21 0 16.299 0 10.5ZM17.229 5.95137C17.6341 5.54132 18.2909 5.54132 18.6961 5.95137C19.1013 6.36142 19.1013 7.02608 18.6961 7.43613L10.5254 15.7049C10.1202 16.1149 9.46346 16.1149 9.05827 15.7049L5.68624 12.2924L5.61532 12.2124C5.28294 11.8 5.30638 11.192 5.68624 10.8076C6.06611 10.4232 6.66685 10.3995 7.07437 10.7358L7.1534 10.8076L9.79185 13.4777L17.229 5.95137Z" fill="#A51826"/>
</svg>
