<svg width="99" height="102" viewBox="0 0 99 102" fill="none" xmlns="http://www.w3.org/2000/svg">
<path d="M1.09448 54.0303L0.0997931 54.1332L1.09448 54.0303ZM41.246 67.6667L42.1858 67.3249L41.246 67.6667ZM97.3071 54.0303L98.3018 54.1332L97.3071 54.0303ZM57.1555 67.6667L56.2157 67.3249L57.1555 67.6667ZM49.1993 9.99101L48.4898 10.6956C48.6775 10.8847 48.9329 10.991 49.1993 10.991C49.4658 10.991 49.7212 10.8847 49.9089 10.6956L49.1993 9.99101ZM53.57 5.58976L54.2796 6.2944C54.2838 6.29019 54.2879 6.28594 54.292 6.28165L53.57 5.58976ZM58.4121 2.22058L58.0148 1.30289L58.0148 1.30289L58.4121 2.22058ZM69.9483 2.11954L70.3295 1.19505L69.9483 2.11954ZM78.0058 21.9681L78.9257 22.3601L78.9257 22.3601L78.0058 21.9681ZM49.1993 53.6515L48.5746 54.4324C48.9398 54.7246 49.4588 54.7246 49.8241 54.4324L49.1993 53.6515ZM44.8286 5.58976L44.1066 6.28165C44.1107 6.28594 44.1149 6.29019 44.1191 6.2944L44.8286 5.58976ZM39.9866 2.22058L40.3839 1.30289L40.3839 1.30289L39.9866 2.22058ZM28.4503 2.11954L28.0691 1.19505L28.4503 2.11954ZM20.2927 10.3412L21.2192 10.7174L21.2192 10.7174L20.2927 10.3412ZM20.3929 21.9681L21.3128 21.576L21.3128 21.576L20.3929 21.9681ZM44.2763 88.1212H43.2763V99.4849H44.2763H45.2763V88.1212H44.2763ZM42.7611 101V100H17.0035V101V102H42.7611V101ZM15.4884 99.4849H16.4884V88.1212H15.4884H14.4884V99.4849H15.4884ZM17.0035 101V100C16.719 100 16.4884 99.7694 16.4884 99.4849H15.4884H14.4884C14.4884 100.874 15.6144 102 17.0035 102V101ZM44.2763 99.4849H43.2763C43.2763 99.7694 43.0456 100 42.7611 100V101V102C44.1502 102 45.2763 100.874 45.2763 99.4849H44.2763ZM42.7611 86.6061V87.6061C43.0456 87.6061 43.2763 87.8367 43.2763 88.1212H44.2763H45.2763C45.2763 86.7321 44.1502 85.6061 42.7611 85.6061V86.6061ZM17.0035 86.6061V85.6061C15.6144 85.6061 14.4884 86.7321 14.4884 88.1212H15.4884H16.4884C16.4884 87.8367 16.719 87.6061 17.0035 87.6061V86.6061ZM17.0035 86.6061V87.6061H20.4126V86.6061V85.6061H17.0035V86.6061ZM20.4126 86.6061H21.4126V78.2727H20.4126H19.4126V86.6061H20.4126ZM20.4126 78.2727H21.4126C21.4126 77.4018 20.9862 76.5155 20.4519 75.7029C19.8985 74.8612 19.1281 73.9504 18.2396 73.0021C16.4668 71.11 14.0914 68.9323 11.7515 66.7055C9.38905 64.4573 7.04263 62.1412 5.2381 59.9066C3.4074 57.6395 2.26307 55.6084 2.08918 53.9274L1.09448 54.0303L0.0997931 54.1332C0.337341 56.4295 1.8135 58.8491 3.6821 61.1631C5.57686 63.5094 8.00854 65.9045 10.3728 68.1544C12.7595 70.4257 15.0594 72.533 16.7801 74.3696C17.6385 75.2857 18.3195 76.1001 18.7807 76.8017C19.2611 77.5323 19.4126 78.0073 19.4126 78.2727H20.4126ZM1.09448 54.0303L2.08918 53.9274C1.85063 51.6215 2.10957 49.944 2.63622 47.6228C3.16671 45.2848 3.96911 42.2984 4.73339 37.5216L3.74595 37.3637L2.75851 37.2057C2.00764 41.8986 1.22961 44.7835 0.685798 47.1803C0.138159 49.5939 -0.171065 51.5149 0.0997931 54.1332L1.09448 54.0303ZM3.74595 37.3637L4.73339 37.5216C5.1144 35.1403 5.44755 32.6653 5.77252 30.2841C6.09838 27.8965 6.41575 25.6054 6.76742 23.5657C7.12029 21.5191 7.50068 19.7691 7.94315 18.4529C8.16425 17.7952 8.39044 17.2779 8.61773 16.8978C8.85023 16.5091 9.04331 16.3325 9.16637 16.2622L8.67024 15.3939L8.1741 14.5257C7.63428 14.8341 7.22367 15.3322 6.9013 15.8712C6.57372 16.419 6.29387 17.0824 6.0474 17.8156C5.55473 19.2811 5.15386 21.1532 4.7965 23.2259C4.43793 25.3056 4.11608 27.631 3.79089 30.0137C3.46482 32.4029 3.13508 34.8521 2.75851 37.2057L3.74595 37.3637ZM8.67024 15.3939L9.16637 16.2622C10.1003 15.7285 11.4138 15.8168 12.5679 16.4934C13.7087 17.1621 14.4884 18.289 14.4884 19.5606H15.4884H16.4884C16.4884 17.4231 15.1847 15.7091 13.5793 14.768C11.9872 13.8347 9.89168 13.5442 8.1741 14.5257L8.67024 15.3939ZM15.4884 19.5606H14.4884C14.4884 21.0853 13.8823 23.2023 13.206 25.4247C12.8781 26.502 12.5384 27.5936 12.2832 28.5781C12.0316 29.5486 11.8369 30.505 11.8369 31.303H12.8369H13.8369C13.8369 30.7753 13.9736 30.0272 14.2192 29.08C14.4611 28.1469 14.7843 27.1078 15.1193 26.0071C15.7687 23.8734 16.4884 21.4449 16.4884 19.5606H15.4884ZM20.4126 86.6061V87.6061H38.9733V86.6061V85.6061H20.4126V86.6061ZM38.9733 86.6061V87.6061H42.7611V86.6061V85.6061H38.9733V86.6061ZM38.9733 86.6061L39.9724 86.6495C40.1576 82.3898 41.009 78.5713 41.6853 75.3232C42.0202 73.7148 42.3178 72.2188 42.4505 70.9078C42.5819 69.6099 42.5667 68.3724 42.1858 67.3249L41.246 67.6667L40.3062 68.0084C40.5314 68.6276 40.5826 69.5019 40.4606 70.7064C40.34 71.8978 40.0647 73.2948 39.7273 74.9155C39.0589 78.1257 38.1678 82.1103 37.9743 86.5626L38.9733 86.6061ZM41.246 67.6667L42.1858 67.3249C41.9583 66.6993 41.4711 65.8122 40.8443 64.791C40.2045 63.7485 39.3779 62.5008 38.4279 61.1309C36.5271 58.39 34.1127 55.1313 31.6651 51.9947C29.2188 48.8596 26.7287 45.8326 24.6766 43.5591C23.6525 42.4245 22.7231 41.4616 21.9543 40.7634C21.5711 40.4154 21.2102 40.1169 20.8848 39.8931C20.5942 39.6931 20.2075 39.4627 19.7965 39.404L19.6551 40.394L19.5137 41.3839C19.4342 41.3725 19.4944 41.3641 19.7511 41.5407C19.973 41.6934 20.2598 41.9261 20.6097 42.244C21.3073 42.8775 22.186 43.7848 23.192 44.8992C25.2 47.1239 27.6578 50.1102 30.0884 53.225C32.5177 56.3384 34.9091 59.5665 36.7844 62.2706C37.7224 63.6233 38.5264 64.8377 39.1398 65.8372C39.7663 66.8579 40.155 67.5924 40.3062 68.0084L41.246 67.6667ZM12.8369 31.303H11.8369C11.8369 32.2727 12.1103 34.4001 12.3742 36.8274C12.6447 39.3153 12.922 42.2371 12.9639 44.9548L13.9638 44.9394L14.9637 44.924C14.9202 42.1083 14.6341 39.1094 14.3625 36.6112C14.0843 34.0523 13.8369 32.1283 13.8369 31.303H12.8369ZM13.9638 44.9394L12.9639 44.9548C13.0044 47.5786 12.8214 49.8885 12.274 51.4213L13.2157 51.7576L14.1574 52.0939C14.8337 50.2003 15.0047 47.5817 14.9637 44.924L13.9638 44.9394ZM19.6551 40.394L19.7965 39.404C18.1504 39.1689 16.4714 39.7571 15.2144 40.7437C13.9583 41.7297 12.9927 43.2202 12.9639 44.9225L13.9638 44.9394L14.9636 44.9563C14.9797 44.0071 15.5339 43.0355 16.4493 42.3169C17.364 41.599 18.5082 41.2403 19.5137 41.3839L19.6551 40.394ZM13.9638 44.9394L12.9638 44.9492C12.9653 45.1023 13.0019 45.2228 13.0117 45.2555C13.0276 45.3085 13.0454 45.355 13.059 45.3886C13.0866 45.4569 13.1201 45.5285 13.1529 45.5952C13.2198 45.7315 13.312 45.9051 13.422 46.1051C13.6436 46.5081 13.9602 47.0596 14.3467 47.7198C15.1209 49.0422 16.1902 50.8261 17.3754 52.7846C19.7466 56.7029 22.5905 61.3345 24.4861 64.4042L25.3369 63.8788L26.1878 63.3534C24.294 60.2866 21.4535 55.6604 19.0865 51.7491C17.9026 49.7929 16.8394 48.019 16.0727 46.7094C15.6888 46.0535 15.383 45.5204 15.1745 45.1413C15.0694 44.9503 14.9947 44.8085 14.9482 44.7139C14.9371 44.6911 14.9285 44.6731 14.9223 44.6594C14.9192 44.6527 14.9169 44.6475 14.9153 44.6438C14.9136 44.64 14.9129 44.6384 14.913 44.6386C14.9131 44.6387 14.9144 44.642 14.9166 44.648C14.9186 44.6537 14.9226 44.6649 14.9272 44.6804C14.9296 44.6883 14.9624 44.7898 14.9637 44.9296L13.9638 44.9394ZM54.1253 88.1212H53.1253V99.4849H54.1253H55.1253V88.1212H54.1253ZM55.6404 101V102H81.398V101V100H55.6404V101ZM82.9132 99.4849H83.9132V88.1212H82.9132H81.9132V99.4849H82.9132ZM81.398 101V102C82.7871 102 83.9132 100.874 83.9132 99.4849H82.9132H81.9132C81.9132 99.7694 81.6825 100 81.398 100V101ZM54.1253 99.4849H53.1253C53.1253 100.874 54.2514 102 55.6404 102V101V100C55.3559 100 55.1253 99.7694 55.1253 99.4849H54.1253ZM55.6404 86.6061V85.6061C54.2514 85.6061 53.1253 86.7321 53.1253 88.1212H54.1253H55.1253C55.1253 87.8367 55.3559 87.6061 55.6404 87.6061V86.6061ZM81.398 86.6061V87.6061C81.6825 87.6061 81.9132 87.8367 81.9132 88.1212H82.9132H83.9132C83.9132 86.7321 82.7871 85.6061 81.398 85.6061V86.6061ZM81.398 86.6061V85.6061H77.9889V86.6061V87.6061H81.398V86.6061ZM77.9889 86.6061H78.9889V78.2727H77.9889H76.9889V86.6061H77.9889ZM77.9889 78.2727H78.9889C78.9889 78.0073 79.1405 77.5323 79.6208 76.8017C80.0821 76.1001 80.7631 75.2857 81.6214 74.3696C83.3421 72.533 85.642 70.4257 88.0288 68.1544C90.393 65.9045 92.8247 63.5094 94.7195 61.1631C96.5881 58.8491 98.0642 56.4295 98.3018 54.1332L97.3071 54.0303L96.3124 53.9274C96.1385 55.6084 94.9942 57.6395 93.1635 59.9066C91.3589 62.1412 89.0125 64.4573 86.65 66.7055C84.3101 68.9323 81.9348 71.11 80.1619 73.0021C79.2735 73.9504 78.5031 74.8612 77.9497 75.7029C77.4154 76.5155 76.9889 77.4018 76.9889 78.2727H77.9889ZM97.3071 54.0303L98.3018 54.1332C98.5726 51.5149 98.2634 49.5939 97.7158 47.1803C97.1719 44.7835 96.3939 41.8986 95.643 37.2057L94.6556 37.3637L93.6682 37.5216C94.4324 42.2984 95.2348 45.2848 95.7653 47.6228C96.292 49.944 96.5509 51.6215 96.3124 53.9274L97.3071 54.0303ZM94.6556 37.3637L95.643 37.2057C95.2665 34.8521 94.9367 32.4029 94.6107 30.0137C94.2855 27.631 93.9636 25.3056 93.6051 23.2259C93.2477 21.1532 92.8468 19.2811 92.3541 17.8156C92.1077 17.0824 91.8278 16.419 91.5003 15.8712C91.1779 15.3322 90.7673 14.8341 90.2275 14.5257L89.7313 15.3939L89.2352 16.2622C89.3582 16.3325 89.5513 16.5091 89.7838 16.8978C90.0111 17.2779 90.2373 17.7952 90.4584 18.4529C90.9009 19.7691 91.2813 21.5191 91.6341 23.5657C91.9858 25.6054 92.3032 27.8965 92.629 30.2841C92.954 32.6653 93.2871 35.1403 93.6682 37.5216L94.6556 37.3637ZM89.7313 15.3939L90.2275 14.5257C88.5099 13.5442 86.4143 13.8347 84.8222 14.768C83.2168 15.7091 81.9132 17.4231 81.9132 19.5606H82.9132H83.9132C83.9132 18.289 84.6928 17.1621 85.8336 16.4934C86.9877 15.8168 88.3012 15.7285 89.2352 16.2622L89.7313 15.3939ZM82.9132 19.5606H81.9132C81.9132 21.4449 82.6329 23.8734 83.2822 26.0071C83.6172 27.1078 83.9404 28.1469 84.1824 29.08C84.4279 30.0272 84.5646 30.7753 84.5646 31.303H85.5646H86.5646C86.5646 30.505 86.37 29.5486 86.1184 28.5781C85.8631 27.5936 85.5235 26.502 85.1956 25.4247C84.5192 23.2023 83.9132 21.0853 83.9132 19.5606H82.9132ZM77.9889 86.6061V85.6061H59.4282V86.6061V87.6061H77.9889V86.6061ZM59.4282 86.6061V85.6061H55.6404V86.6061V87.6061H59.4282V86.6061ZM59.4282 86.6061L60.4273 86.5626C60.2337 82.1103 59.3427 78.1257 58.6743 74.9155C58.3368 73.2948 58.0615 71.8978 57.9409 70.7064C57.819 69.5019 57.8701 68.6276 58.0953 68.0084L57.1555 67.6667L56.2157 67.3249C55.8348 68.3724 55.8197 69.6099 55.9511 70.9078C56.0838 72.2188 56.3814 73.7148 56.7163 75.3232C57.3926 78.5713 58.244 82.3898 58.4292 86.6495L59.4282 86.6061ZM57.1555 67.6667L58.0953 68.0084C58.2466 67.5924 58.6353 66.8579 59.2618 65.8372C59.8752 64.8377 60.6791 63.6233 61.6172 62.2706C63.4924 59.5665 65.8838 56.3384 68.3132 53.225C70.7437 50.1102 73.2015 47.1239 75.2096 44.8992C76.2155 43.7848 77.0943 42.8775 77.7918 42.244C78.1418 41.9261 78.4286 41.6934 78.6505 41.5407C78.9071 41.3641 78.9674 41.3725 78.8878 41.3839L78.7464 40.394L78.605 39.404C78.194 39.4627 77.8074 39.6931 77.5168 39.8931C77.1914 40.1169 76.8305 40.4154 76.4472 40.7634C75.6785 41.4616 74.7491 42.4245 73.7249 43.5591C71.6729 45.8326 69.1828 48.8596 66.7364 51.9947C64.2889 55.1313 61.8744 58.39 59.9737 61.1309C59.0237 62.5008 58.1971 63.7485 57.5572 64.791C56.9305 65.8122 56.4432 66.6993 56.2157 67.3249L57.1555 67.6667ZM85.5646 31.303H84.5646C84.5646 32.1283 84.3173 34.0523 84.0391 36.6112C83.7675 39.1094 83.4813 42.1083 83.4379 44.924L84.4378 44.9394L85.4376 44.9548C85.4796 42.2371 85.7569 39.3153 86.0274 36.8274C86.2913 34.4001 86.5646 32.2727 86.5646 31.303H85.5646ZM84.4378 44.9394L83.4379 44.924C83.3969 47.5817 83.5678 50.2003 84.2441 52.0939L85.1859 51.7576L86.1276 51.4213C85.5802 49.8885 85.3972 47.5786 85.4376 44.9548L84.4378 44.9394ZM78.7464 40.394L78.8878 41.3839C79.8933 41.2403 81.0376 41.599 81.9522 42.3169C82.8677 43.0355 83.4219 44.0071 83.4379 44.9563L84.4378 44.9394L85.4376 44.9225C85.4089 43.2202 84.4432 41.7297 83.1871 40.7437C81.9301 39.7571 80.2511 39.1689 78.605 39.404L78.7464 40.394ZM84.4378 44.9394L83.4378 44.9296C83.4392 44.7898 83.4719 44.6883 83.4743 44.6804C83.479 44.6649 83.4829 44.6537 83.485 44.648C83.4871 44.642 83.4885 44.6387 83.4885 44.6386C83.4886 44.6384 83.4879 44.64 83.4863 44.6438C83.4847 44.6475 83.4824 44.6527 83.4793 44.6594C83.473 44.6731 83.4645 44.6911 83.4533 44.7139C83.4069 44.8085 83.3321 44.9503 83.2271 45.1413C83.0186 45.5204 82.7127 46.0535 82.3288 46.7094C81.5622 48.019 80.499 49.7929 79.3151 51.7491C76.9481 55.6604 74.1075 60.2866 72.2138 63.3534L73.0646 63.8788L73.9155 64.4042C75.811 61.3345 78.6549 56.7029 81.0262 52.7846C82.2114 50.8261 83.2807 49.0422 84.0548 47.7198C84.4413 47.0596 84.7579 46.5081 84.9795 46.1051C85.0895 45.9051 85.1818 45.7315 85.2487 45.5952C85.2814 45.5285 85.3149 45.4569 85.3426 45.3886C85.3561 45.355 85.3739 45.3085 85.3898 45.2555C85.3997 45.2228 85.4362 45.1023 85.4377 44.9492L84.4378 44.9394ZM49.1993 9.99101L49.9089 10.6956L54.2796 6.2944L53.57 5.58976L52.8605 4.88512L48.4898 9.28637L49.1993 9.99101ZM53.57 5.58976L54.292 6.28165C55.5762 4.94158 57.112 3.87314 58.8094 3.13826L58.4121 2.22058L58.0148 1.30289C56.0723 2.14387 54.3159 3.36609 52.848 4.89786L53.57 5.58976ZM58.4121 2.22058L58.8094 3.13826C60.5068 2.4034 62.3321 2.0167 64.1789 2.00053L64.1701 1.00057L64.1613 0.000605989C62.0468 0.0191252 59.9573 0.461903 58.0148 1.30289L58.4121 2.22058ZM64.1701 1.00057L64.1789 2.00053C66.0257 1.98436 67.8573 2.33902 69.5671 3.04403L69.9483 2.11954L70.3295 1.19505C68.3728 0.388202 66.2759 -0.0179132 64.1613 0.000605989L64.1701 1.00057ZM69.9483 2.11954L69.5671 3.04403C71.2769 3.74905 72.8308 4.79041 74.1378 6.10774L74.8477 5.40341L75.5576 4.69907C74.0634 3.1932 72.2863 2.0019 70.3295 1.19505L69.9483 2.11954ZM74.8477 5.40341L74.1378 6.10774C75.4449 7.4251 76.479 8.99205 77.1794 10.7174L78.106 10.3412L79.0326 9.96511C78.2329 7.99515 77.0517 6.20492 75.5576 4.69907L74.8477 5.40341ZM78.106 10.3412L77.1794 10.7174C77.8798 12.4427 78.2324 14.2916 78.2163 16.1562L79.2163 16.1648L80.2162 16.1734C80.2346 14.0455 79.8323 11.9351 79.0326 9.96511L78.106 10.3412ZM79.2163 16.1648L78.2163 16.1562C78.2002 18.0207 77.8159 19.8632 77.0858 21.576L78.0058 21.9681L78.9257 22.3601C79.7592 20.4045 80.1979 18.3013 80.2162 16.1734L79.2163 16.1648ZM78.0058 21.9681L77.0858 21.576C76.3476 23.3081 74.8376 25.6359 72.7776 28.3165C70.7297 30.9813 68.1812 33.9404 65.4132 36.9254C59.8739 42.899 53.4979 48.9315 48.5746 52.8707L49.1993 53.6515L49.8241 54.4324C54.8425 50.4171 61.2907 44.3125 66.8797 38.2853C69.6758 35.2699 72.2674 32.2627 74.3634 29.5351C76.4473 26.8234 78.0849 24.3327 78.9257 22.3601L78.0058 21.9681ZM49.1993 9.99101L49.9089 9.28637L45.5382 4.88512L44.8286 5.58976L44.1191 6.2944L48.4898 10.6956L49.1993 9.99101ZM44.8286 5.58976L45.5506 4.89786C44.0827 3.36609 42.3264 2.14387 40.3839 1.30289L39.9866 2.22058L39.5893 3.13826C41.2867 3.87314 42.8224 4.94158 44.1066 6.28165L44.8286 5.58976ZM39.9866 2.22058L40.3839 1.30289C38.4414 0.461902 36.3519 0.0191252 34.2373 0.000605989L34.2285 1.00057L34.2198 2.00053C36.0666 2.0167 37.8919 2.4034 39.5893 3.13826L39.9866 2.22058ZM34.2285 1.00057L34.2373 0.000605989C32.1227 -0.0179132 30.0259 0.388202 28.0691 1.19505L28.4503 2.11954L28.8315 3.04403C30.5413 2.33902 32.373 1.98436 34.2198 2.00053L34.2285 1.00057ZM28.4503 2.11954L28.0691 1.19505C26.1124 2.0019 24.3352 3.1932 22.8411 4.69907L23.5509 5.40341L24.2608 6.10774C25.5679 4.79041 27.1218 3.74905 28.8315 3.04403L28.4503 2.11954ZM23.5509 5.40341L22.8411 4.69907C21.347 6.20492 20.1658 7.99515 19.3661 9.96511L20.2927 10.3412L21.2192 10.7174C21.9196 8.99205 22.9537 7.4251 24.2608 6.10774L23.5509 5.40341ZM20.2927 10.3412L19.3661 9.96511C18.5664 11.9351 18.1641 14.0455 18.1824 16.1734L19.1824 16.1648L20.1824 16.1562C20.1663 14.2916 20.5188 12.4427 21.2192 10.7174L20.2927 10.3412ZM19.1824 16.1648L18.1824 16.1734C18.2008 18.3013 18.6394 20.4045 19.473 22.3601L20.3929 21.9681L21.3128 21.576C20.5828 19.8632 20.1984 18.0207 20.1824 16.1562L19.1824 16.1648ZM20.3929 21.9681L19.473 22.3601C20.3137 24.3327 21.9513 26.8234 24.0352 29.5351C26.1313 32.2627 28.7228 35.2699 31.519 38.2853C37.108 44.3125 43.5562 50.4171 48.5746 54.4324L49.1993 53.6515L49.8241 52.8707C44.9007 48.9315 38.5248 42.899 32.9855 36.9254C30.2175 33.9404 27.6689 30.9813 25.6211 28.3165C23.5611 25.6359 22.0511 23.3081 21.3128 21.576L20.3929 21.9681ZM29.5955 8.19697L29.1675 7.29321C26.8837 8.37486 25.4324 10.899 24.8764 13.5407C24.3157 16.2049 24.6018 19.2577 26.1004 21.6126L26.944 21.0758L27.7877 20.5389C26.6348 18.7271 26.3526 16.2376 26.8336 13.9526C27.3192 11.6451 28.5195 9.81312 30.0236 9.10073L29.5955 8.19697Z" fill="#A51826"/>
</svg>
