<svg width="75" height="30" viewBox="0 0 75 30" fill="none" xmlns="http://www.w3.org/2000/svg">
<path d="M8.53973 30C9.27301 27.234 10.004 24.4703 10.7442 21.6811C10.4183 21.8363 10.1134 21.9706 9.80376 22.0888C8.63983 22.5289 7.43865 22.7768 6.18858 22.7467C4.87334 22.7143 3.63957 22.3946 2.54315 21.6486C1.27446 20.7869 0.501607 19.5892 0.166394 18.1065C-0.103638 16.9065 -0.0314742 15.7112 0.285116 14.5297C0.834492 12.4818 1.95652 10.7768 3.4999 9.34051C4.88265 8.05248 6.47491 7.12584 8.30461 6.62082C9.63615 6.25479 10.984 6.15518 12.3435 6.44476C13.7774 6.75055 14.9833 7.43858 15.8888 8.60383C16.5895 9.50731 16.962 10.5451 17.0807 11.6733C17.1924 12.7297 17.0481 13.7583 16.7687 14.7753C16.3916 16.1537 16.0285 17.5367 15.6607 18.9174C14.8669 21.9104 14.094 24.9104 13.2723 27.8965C12.9487 29.071 12.113 29.7591 10.9048 29.9792C10.8909 29.9815 10.8792 29.9907 10.8653 29.9977C10.0924 30 9.31491 30 8.53973 30ZM4.35423 15.5814C4.35888 15.6602 4.35888 15.7853 4.37518 15.9081C4.52183 17.1289 5.15734 17.9745 6.33058 18.3938C6.98239 18.6255 7.65747 18.6394 8.32789 18.4981C9.94343 18.1552 11.1702 17.254 12.0502 15.878C12.56 15.0787 12.8323 14.2031 12.7764 13.244C12.702 11.9861 11.9058 10.9784 10.6977 10.6216C10.0342 10.4247 9.36379 10.4247 8.6957 10.5799C7.22448 10.9228 6.07685 11.7475 5.22252 12.9753C4.68711 13.7421 4.37518 14.5923 4.35423 15.5814Z" fill="#1E1E1E"/>
<path d="M54.3285 0.00231674C53.9607 1.38764 53.5953 2.77297 53.2275 4.15598C53.1949 4.18146 53.16 4.16988 53.125 4.16988C52.4546 4.16988 51.7819 4.17451 51.1115 4.16988C50.6389 4.16756 50.2153 4.02625 49.894 3.66486C49.503 3.22702 49.4331 2.70579 49.5682 2.15675C49.7474 1.43629 49.9476 0.718145 50.1385 0C51.5351 0 52.9318 1.41328e-07 54.3285 0.00231674Z" fill="#1E1E1E"/>
<path d="M75 6.34767C74.9092 6.5886 74.858 6.84111 74.7928 7.0913C74.6229 7.71911 74.4599 8.34922 74.2947 8.97934C74.2807 9.03262 74.2597 9.06274 74.1946 9.06042C73.3076 9.05811 72.4184 9.05811 71.5315 9.05811C71.5175 9.05811 71.5036 9.05347 71.4803 9.05116C71.7247 8.12683 71.9691 7.20945 72.2136 6.28049C73.1424 6.28049 74.0712 6.28049 75 6.28049C75 6.30134 75 6.32451 75 6.34767Z" fill="#1E1E1E"/>
<path d="M24.0872 22.7516C23.2608 22.747 22.1435 22.5292 21.1122 21.9686C19.4688 21.0767 18.505 19.6914 18.1582 17.8728C17.944 16.7493 18.0278 15.635 18.3235 14.5346C18.8589 12.5423 19.9367 10.872 21.4195 9.45197C22.7231 8.20564 24.2269 7.28594 25.9518 6.73459C26.9528 6.4149 27.9794 6.2481 29.0316 6.28285C30.3957 6.32687 31.6667 6.67899 32.7818 7.4898C34.0411 8.40718 34.7744 9.65815 35.0491 11.1778C35.3028 12.5771 35.1189 13.9392 34.6394 15.2667C33.9434 17.1964 32.7585 18.7856 31.1942 20.1014C29.8626 21.2203 28.3612 22.0242 26.6688 22.4597C25.9216 22.6543 25.158 22.7493 24.0872 22.7516ZM22.3949 15.5794C22.3995 15.6582 22.3995 15.7833 22.4158 15.906C22.5625 17.1269 23.1957 17.9748 24.3666 18.3918C25.0184 18.6257 25.6935 18.6396 26.3639 18.4983C27.9841 18.1555 29.2132 17.252 30.0931 15.8713C30.6006 15.0744 30.8706 14.201 30.8147 13.2466C30.7402 11.9887 29.9464 10.9809 28.7383 10.6219C28.0748 10.4249 27.4044 10.4249 26.7363 10.5802C25.2651 10.923 24.1175 11.7477 23.2608 12.9732C22.7278 13.74 22.4158 14.5902 22.3949 15.5794Z" fill="#1E1E1E"/>
<path d="M49.8197 22.7508C49.808 22.6767 49.8616 22.6512 49.8942 22.6187C51.8915 20.6543 53.8888 18.6898 55.8861 16.7276C56.6101 16.0164 57.3317 15.3052 58.0557 14.5963C58.1139 14.5384 58.1278 14.4967 58.0883 14.418C56.7847 11.7469 55.4834 9.07355 54.1798 6.40018C54.1635 6.36543 54.1495 6.33069 54.1355 6.30057C54.1542 6.27277 54.1751 6.27972 54.1937 6.27972C54.9154 6.27972 55.637 6.27277 56.3587 6.28204C57.0314 6.2913 57.6599 6.46736 58.2163 6.85887C58.6167 7.1415 58.9263 7.50289 59.1335 7.94536C59.6596 9.07123 60.2183 10.1832 60.7583 11.3021C60.8258 11.4411 60.8933 11.5778 60.9818 11.7585C61.2658 11.462 61.5288 11.1793 61.8012 10.9083C62.7603 9.95849 63.731 9.02026 64.6831 8.06119C65.4816 7.25964 66.4011 6.67818 67.5068 6.40482C67.835 6.32374 68.1679 6.2774 68.5078 6.2774C69.2061 6.27509 69.9045 6.2774 70.6029 6.2774C70.6262 6.2774 70.6471 6.2774 70.6867 6.2774C70.4841 6.48126 70.2956 6.67123 70.1047 6.85887C67.5347 9.38397 64.9671 11.9091 62.3971 14.4342C62.3389 14.4921 62.3296 14.5361 62.3669 14.6126C63.6635 17.2697 64.9578 19.9315 66.2544 22.5909C66.2777 22.6373 66.3173 22.6813 66.28 22.7462C66.2567 22.7485 66.2288 22.7508 66.2032 22.7508C65.5048 22.7508 64.8065 22.7624 64.1081 22.7485C63.2119 22.7299 62.4204 22.445 61.7942 21.7801C61.5777 21.5508 61.4171 21.2821 61.2821 20.9994C60.6955 19.7809 60.1042 18.567 59.5152 17.3508C59.5106 17.3415 59.5013 17.3322 59.4943 17.3207C59.4547 17.323 59.4384 17.3554 59.4151 17.3786C58.2372 18.5369 57.05 19.6859 55.8838 20.8558C55.3553 21.3863 54.7897 21.8566 54.1169 22.1948C53.372 22.5678 52.5852 22.767 51.7472 22.7554C51.1047 22.7415 50.4645 22.7508 49.8197 22.7508Z" fill="#1E1E1E"/>
<path d="M34.2112 22.7467C34.2973 22.4201 34.3788 22.105 34.4626 21.7877C34.6884 20.9351 34.9165 20.0826 35.1423 19.2301C35.3705 18.3707 35.5963 17.5089 35.8244 16.6494C36.2131 15.1784 36.6042 13.7073 36.9953 12.2363C37.1629 11.6039 37.3189 10.9668 37.5028 10.339C37.7914 9.35675 38.3501 8.53435 39.102 7.844C39.9028 7.10732 40.8293 6.6023 41.9071 6.38918C42.1213 6.34748 42.3354 6.31968 42.5519 6.31041C44.0045 6.25018 45.4571 6.29883 46.912 6.28493C46.919 6.28493 46.926 6.28725 46.9516 6.2942C46.5838 7.67721 46.2183 9.06022 45.8528 10.4409C45.8109 10.4641 45.7667 10.4525 45.7271 10.4525C45.1149 10.4525 44.5003 10.4525 43.8881 10.4525C42.7195 10.4571 41.8955 11.027 41.3205 12.0023C41.1366 12.3127 41.0737 12.6649 40.9829 13.0077C40.5988 14.4486 40.2147 15.8896 39.833 17.3305C39.4233 18.8803 39.0136 20.4301 38.6062 21.9799C38.5387 22.2371 38.4688 22.4919 38.399 22.749C37.0046 22.7467 35.6172 22.7467 34.2112 22.7467Z" fill="#1E1E1E"/>
<path d="M48.4767 6.28253C49.2262 6.28253 49.9642 6.26168 50.7021 6.28716C51.6682 6.31959 52.3107 7.11187 52.171 8.064C52.1035 8.53427 51.9499 8.986 51.8288 9.44238C50.8185 13.2625 49.8036 17.0825 48.7909 20.9026C48.635 21.4864 48.4813 22.0725 48.3254 22.6563C48.3184 22.6864 48.3067 22.7142 48.2997 22.7443C46.903 22.7443 45.511 22.7443 44.1119 22.7443C45.5668 17.2563 47.0194 11.7729 48.4767 6.28253Z" fill="#1E1E1E"/>
</svg>
