<svg width="30" height="30" viewBox="0 0 30 30" fill="none" xmlns="http://www.w3.org/2000/svg">
<g clip-path="url(#clip0_50_63)">
<path d="M15 0C11.0227 0 7.20469 1.58133 4.39453 4.39336C1.58148 7.20651 0.000779226 11.0217 0 15C0 18.9766 1.58203 22.7946 4.39453 25.6066C7.20469 28.4187 11.0227 30 15 30C18.9773 30 22.7953 28.4187 25.6055 25.6066C28.418 22.7946 30 18.9766 30 15C30 11.0234 28.418 7.20539 25.6055 4.39336C22.7953 1.58133 18.9773 0 15 0Z" fill="url(#paint0_linear_50_63)"/>
<path d="M6.78858 14.8415C11.162 12.9365 14.0776 11.6805 15.5355 11.0737C19.7026 9.341 20.5675 9.04006 21.1323 9.02986C21.2566 9.02787 21.5331 9.05857 21.7136 9.20447C21.8636 9.32752 21.9058 9.49393 21.9269 9.61076C21.9456 9.72748 21.9714 9.9935 21.9503 10.2012C21.7253 12.573 20.748 18.3288 20.2511 20.9854C20.0425 22.1095 19.6276 22.4864 19.2269 22.5232C18.355 22.6033 17.6941 21.9476 16.8503 21.3947C15.5308 20.5291 14.7855 19.9905 13.5034 19.1461C12.0222 18.1701 12.9831 17.6337 13.8269 16.7571C14.0472 16.5276 17.8862 13.0366 17.9589 12.72C17.9683 12.6804 17.9776 12.5327 17.8886 12.4549C17.8019 12.3769 17.673 12.4036 17.5792 12.4247C17.4456 12.4547 15.3386 13.8487 11.2511 16.6066C10.6534 17.0177 10.112 17.2181 9.62452 17.2076C9.09015 17.1961 8.0589 16.9047 7.29249 16.6558C6.35499 16.3504 5.60733 16.189 5.67296 15.6703C5.70577 15.4003 6.07843 15.124 6.78858 14.8415Z" fill="white"/>
</g>
<defs>
<linearGradient id="paint0_linear_50_63" x1="1500" y1="0" x2="1500" y2="3000" gradientUnits="userSpaceOnUse">
<stop stop-color="#2AABEE"/>
<stop offset="1" stop-color="#229ED9"/>
</linearGradient>
<clipPath id="clip0_50_63">
<rect width="30" height="30" fill="white"/>
</clipPath>
</defs>
</svg>
