<svg aria-hidden="true" xmlns="http://www.w3.org/2000/svg" xmlns:xlink="http://www.w3.org/1999/xlink"><symbol viewBox="0 0 37 28" fill="none" id="icon-arrow" xmlns="http://www.w3.org/2000/svg">
<path d="M0.5 14H35.5M35.5 14L23 26.5M35.5 14L23 1.5" stroke="currentColor" stroke-width="1.5"/>
</symbol><symbol viewBox="0 0 21 21" fill="none" id="icon-arrow-rotate" xmlns="http://www.w3.org/2000/svg">
<path d="M2 19L19 2M19 2H4M19 2V17" stroke="currentColor" stroke-width="3"/>
</symbol><symbol viewBox="0 0 27 24" fill="none" id="icon-arrow-slide-next" xmlns="http://www.w3.org/2000/svg">
<path d="M0.5 12H25.5M25.5 12L14.1363 23M25.5 12L14.1363 1" stroke="currentColor" stroke-width="1.5"/>
</symbol><symbol viewBox="0 0 27 24" fill="none" id="icon-arrow-slide-prev" xmlns="http://www.w3.org/2000/svg">
<path d="M26.5 12H1.5M1.5 12L12.8637 23M1.5 12L12.8637 1" stroke="currentColor" stroke-width="1.5"/>
</symbol><symbol viewBox="0 0 19 21" fill="none" id="icon-check" xmlns="http://www.w3.org/2000/svg">
<path d="M0 10.5C0 4.70101 4.64526 0 10.3755 0C12.613 0 14.6876 0.717819 16.3829 1.93799L16.7163 2.18818L16.7973 2.25894C17.1785 2.62534 17.2312 3.23165 16.9027 3.66167C16.5742 4.09153 15.9812 4.19283 15.5348 3.91186L15.4477 3.85034L15.1802 3.64937C13.8243 2.67339 12.1673 2.1 10.3755 2.1C5.7913 2.1 2.07509 5.86081 2.07509 10.5C2.07509 15.1392 5.7913 18.9 10.3755 18.9C12.2868 18.9 14.045 18.2472 15.4477 17.1497L15.5348 17.0881C15.9812 16.8072 16.5742 16.9085 16.9027 17.3383C17.2532 17.7971 17.1696 18.4571 16.7163 18.8118L16.3829 19.062C14.6876 20.2822 12.613 21 10.3755 21C4.64526 21 0 16.299 0 10.5ZM17.229 5.95137C17.6341 5.54132 18.2909 5.54132 18.6961 5.95137C19.1013 6.36142 19.1013 7.02608 18.6961 7.43613L10.5254 15.7049C10.1202 16.1149 9.46346 16.1149 9.05827 15.7049L5.68624 12.2924L5.61532 12.2124C5.28294 11.8 5.30638 11.192 5.68624 10.8076C6.06611 10.4232 6.66685 10.3995 7.07437 10.7358L7.1534 10.8076L9.79185 13.4777L17.229 5.95137Z" fill="currentColor"/>
</symbol><symbol viewBox="0 0 22 18" fill="none" id="icon-tg" xmlns="http://www.w3.org/2000/svg">
<path d="M1.94343 7.74897C7.58164 5.20899 11.3404 3.53431 13.2198 2.72525C18.5922 0.414959 19.7071 0.0137121 20.4353 0.000118444C20.5954 -0.00253779 20.952 0.0383991 21.1846 0.232929C21.378 0.39699 21.4324 0.618864 21.4596 0.774644C21.4838 0.930268 21.517 1.28495 21.4898 1.56183C21.1997 4.7243 19.9398 12.3986 19.2992 15.9408C19.0303 17.4395 18.4955 17.942 17.9788 17.9911C16.8548 18.098 16.0027 17.2236 14.9149 16.4864C13.2138 15.3323 12.2529 14.6142 10.6002 13.4883C8.69054 12.1871 9.92938 11.4718 11.0171 10.303C11.3012 9.99708 16.2505 5.34242 16.3441 4.92024C16.3562 4.86743 16.3683 4.67055 16.2535 4.5668C16.1417 4.46274 15.9755 4.49837 15.8546 4.52649C15.6824 4.56649 12.966 6.42523 7.69646 10.1024C6.92596 10.6505 6.22798 10.9177 5.5995 10.9036C4.91059 10.8883 3.58111 10.4999 2.59306 10.168C1.38444 9.76083 0.420571 9.54552 0.505174 8.85396C0.547476 8.49396 1.0279 8.12553 1.94343 7.74897Z" fill="currentColor"/>
</symbol><symbol viewBox="0 0 24 14" fill="none" id="icon-vk" xmlns="http://www.w3.org/2000/svg">
<path d="M13.0718 14C4.87188 14 0.194878 8.74474 0 0H4.10743C4.24235 6.41842 7.27038 9.13714 9.66888 9.6977V0H13.5366V5.53553C15.9051 5.2973 18.3933 2.77477 19.2328 0H23.1004C22.4558 3.41942 19.7575 5.94194 17.8387 6.97898C19.7575 7.81982 22.8307 10.02 24 14H19.7425C18.8281 11.3373 16.5497 9.27728 13.5366 8.997V14H13.0718Z" fill="currentColor"/>
</symbol></svg>