<svg width="30" height="30" viewBox="0 0 30 30" fill="none" xmlns="http://www.w3.org/2000/svg">
<g clip-path="url(#clip0_50_59)">
<path d="M28.5 15C28.5 22.4558 22.4558 28.5 15 28.5C11.1672 28.5 8.25 26.25 4.5 25.5C3 22.5 1.5 18.623 1.5 15C1.5 7.54416 7.54416 1.5 15 1.5C22.4558 1.5 28.5 7.54416 28.5 15Z" fill="white"/>
<path d="M22.1975 17.2383C22.1391 17.2103 19.952 16.1333 19.5633 15.9934C19.4047 15.9364 19.2347 15.8808 19.0539 15.8808C18.7586 15.8808 18.5105 16.028 18.3173 16.3171C18.0988 16.6418 17.4374 17.4149 17.2331 17.6458C17.2064 17.6763 17.17 17.7128 17.1481 17.7128C17.1286 17.7128 16.7901 17.5734 16.6876 17.5289C14.3415 16.5097 12.5607 14.059 12.3165 13.6457C12.2816 13.5863 12.2802 13.5593 12.2799 13.5593C12.2884 13.5279 12.3673 13.4488 12.4081 13.408C12.5272 13.2901 12.6562 13.1347 12.7811 12.9844C12.8402 12.9132 12.8995 12.8419 12.9576 12.7747C13.1388 12.564 13.2194 12.4003 13.3129 12.2108L13.3619 12.1123C13.5902 11.6587 13.3952 11.2759 13.3322 11.1523C13.2805 11.0489 12.357 8.82009 12.2588 8.58593C12.0227 8.0209 11.7108 7.75781 11.2772 7.75781C11.237 7.75781 11.2772 7.75781 11.1085 7.76492C10.9031 7.77359 9.78443 7.92086 9.28979 8.23265C8.76528 8.56333 7.87793 9.61743 7.87793 11.4712C7.87793 13.1396 8.9367 14.7149 9.39128 15.314C9.40258 15.3291 9.42333 15.3598 9.45342 15.4038C11.1943 17.9462 13.3646 19.8304 15.5646 20.7093C17.6826 21.5553 18.6856 21.6531 19.2557 21.6531C19.2558 21.6531 19.2558 21.6531 19.2558 21.6531C19.4955 21.6531 19.6872 21.6343 19.8564 21.6176L19.9638 21.6074C20.6954 21.5425 22.3034 20.7094 22.6691 19.693C22.9572 18.8924 23.0332 18.0177 22.8415 17.7003C22.7102 17.4845 22.484 17.3758 22.1975 17.2383Z" fill="#07C347"/>
<path d="M15.2663 0C7.14134 0 0.531211 6.56045 0.531211 14.6243C0.531211 17.2325 1.2292 19.7855 2.55144 22.0199L0.0206267 29.4853C-0.0265161 29.6245 0.00854878 29.7784 0.111504 29.8832C0.185822 29.9591 0.286633 30 0.389588 30C0.429036 30 0.468776 29.9941 0.507543 29.9817L8.29196 27.508C10.4222 28.6462 12.8298 29.247 15.2664 29.247C23.3906 29.2471 30 22.6873 30 14.6243C30 6.56045 23.3906 0 15.2663 0ZM15.2663 26.2007C12.9735 26.2007 10.7529 25.5387 8.84394 24.2861C8.77975 24.2439 8.70524 24.2223 8.63024 24.2223C8.5906 24.2223 8.55086 24.2283 8.51219 24.2406L4.61268 25.4801L5.87151 21.7663C5.91222 21.6461 5.89186 21.5135 5.81686 21.411C4.36323 19.4248 3.59482 17.0781 3.59482 14.6243C3.59482 8.24026 8.8306 3.04636 15.2662 3.04636C21.701 3.04636 26.9362 8.24026 26.9362 14.6243C26.9363 21.0076 21.7012 26.2007 15.2663 26.2007Z" fill="#07C347"/>
</g>
<defs>
<clipPath id="clip0_50_59">
<rect width="30" height="30" fill="white"/>
</clipPath>
</defs>
</svg>
